<svg width="174" height="130" viewBox="0 0 174 130" fill="none" xmlns="http://www.w3.org/2000/svg">
<path opacity="0.99" d="M167.5 100C167.5 108.982 160.021 116.5 150.5 116.5C140.979 116.5 133.5 108.982 133.5 100C133.5 91.0184 140.979 83.5 150.5 83.5C160.021 83.5 167.5 91.0184 167.5 100Z" stroke="black" stroke-width="13"/>
<circle opacity="0.99" cx="92.5" cy="108.5" r="8.5" stroke="black" stroke-width="6"/>
<circle opacity="0.99" cx="163.5" cy="45.5" r="7.5" stroke="black" stroke-width="6"/>
<path opacity="0.99" d="M139.5 23C139.5 31.9816 132.021 39.5 122.5 39.5C112.979 39.5 105.5 31.9816 105.5 23C105.5 14.0184 112.979 6.5 122.5 6.5C132.021 6.5 139.5 14.0184 139.5 23Z" stroke="black" stroke-width="13"/>
<rect x="8.19048" y="89.5684" width="53" height="33" rx="16.5" transform="rotate(-18 8.19048 89.5684)" stroke="black" stroke-width="13"/>
<line x1="61.4038" y1="84.4038" x2="108.404" y2="37.4038" stroke="black" stroke-width="13"/>
<line x1="143.879" y1="86.1862" x2="128.879" y2="44.1862" stroke="black" stroke-width="13"/>
</svg>
